# WaveFront *.obj file (generated by Autodesk ATF)

mtllib 0ad344af-23da-4f50-a330-db58d16cdef8.mtl

g Body1

v -42.345710 60.000000 16.298513
v -42.345710 70.000000 16.298513
v -42.345710 70.000000 31.046175
v -42.345710 60.000000 31.046175
v -74.506411 60.000000 5.352280
v -74.506411 70.000000 5.352280
v -42.345710 60.000000 -20.271284
v -42.345710 70.000000 -20.271284
v -42.345710 70.000000 -5.593953
v -42.345710 60.000000 -5.593953
v 36.467169 60.000000 -5.593953
v 36.467169 70.000000 -5.593953
v 36.467169 60.000000 16.298513
v 36.467169 70.000000 16.298513
v -88.250108 60.000000 4.571367
v -87.572967 60.000000 -4.032529
v -85.558217 60.000000 -12.424568
v -82.255467 60.000000 -20.398111
v -77.746043 60.000000 -27.756822
v -72.140981 60.000000 -34.319506
v -65.578297 60.000000 -39.924568
v -58.219586 60.000000 -44.433992
v -50.246043 60.000000 -47.736742
v -41.854004 60.000000 -49.751492
v -33.250108 60.000000 -50.428633
v -33.250108 0.000000 -50.428633
v -41.854004 0.000000 -49.751492
v -50.246043 0.000000 -47.736742
v -58.219586 0.000000 -44.433992
v -65.578297 0.000000 -39.924568
v -72.140981 0.000000 -34.319506
v -77.746043 0.000000 -27.756822
v -82.255467 0.000000 -20.398111
v -85.558217 0.000000 -12.424568
v -87.572967 0.000000 -4.032529
v -88.250108 0.000000 4.571367
v 61.002379 60.000000 -50.428633
v 61.002379 0.000000 -50.428633
v -88.250108 60.000000 10.069204
v -87.572967 60.000000 18.673100
v -85.558217 60.000000 27.065139
v -82.255467 60.000000 35.038682
v -77.746043 60.000000 42.397393
v -72.140981 60.000000 48.960077
v -65.578297 60.000000 54.565139
v -58.219586 60.000000 59.074563
v -50.246043 60.000000 62.377313
v -41.854004 60.000000 64.392063
v -33.250108 60.000000 65.069204
v 61.002379 60.000000 65.069204
v -88.250108 0.000000 10.069204
v -87.572967 0.000000 18.673100
v -85.558217 0.000000 27.065139
v -82.255467 0.000000 35.038682
v -77.746043 0.000000 42.397393
v -72.140981 0.000000 48.960077
v -65.578297 0.000000 54.565139
v -58.219586 0.000000 59.074563
v -50.246043 0.000000 62.377313
v -41.854004 0.000000 64.392063
v -33.250108 0.000000 65.069204
v 61.002379 0.000000 65.069204
vt 1.474766 1.000000 0.000000
vt 0.000000 1.000000 0.000000
vt 1.474766 0.000000 0.000000
vt 0.000000 0.000000 0.000000
vt 0.000000 0.000000 0.000000
vt 4.116415 0.000000 0.000000
vt 0.000000 1.000000 0.000000
vt 4.116415 1.000000 0.000000
vt 0.000000 0.000000 0.000000
vt 4.112028 0.000000 0.000000
vt 0.000000 1.000000 0.000000
vt 4.112028 1.000000 0.000000
vt 3.664013 0.000000 0.000000
vt 5.131746 0.000000 0.000000
vt 3.664013 1.000000 0.000000
vt 5.131746 1.000000 0.000000
vt -0.000000 0.000000 0.000000
vt 7.881288 0.000000 0.000000
vt -0.000000 1.000000 0.000000
vt 7.881288 1.000000 0.000000
vt -0.000000 0.000000 0.000000
vt 2.189247 0.000000 0.000000
vt -0.000000 1.000000 0.000000
vt 2.189247 1.000000 0.000000
vt 0.000000 0.000000 0.000000
vt 7.881288 0.000000 0.000000
vt 0.000000 1.000000 0.000000
vt 7.881288 1.000000 0.000000
vt 1.094623 3.940644 0.000000
vt -1.094623 3.940644 0.000000
vt 1.094623 -3.940644 0.000000
vt -1.094623 -3.940644 0.000000
vt 0.000000 -7.156714 0.000000
vt -2.562356 -3.940644 0.000000
vt 2.569389 -3.940644 0.000000
vt -0.000000 4.319690 0.000000
vt -6.000000 4.319690 0.000000
vt -0.000000 3.455752 0.000000
vt -6.000000 3.455752 0.000000
vt -0.000000 2.591814 0.000000
vt -6.000000 2.591814 0.000000
vt -0.000000 1.727876 0.000000
vt -6.000000 1.727876 0.000000
vt -0.000000 0.863938 0.000000
vt -6.000000 0.863938 0.000000
vt -0.000000 0.000000 0.000000
vt -6.000000 0.000000 0.000000
vt -0.000000 -0.863938 0.000000
vt -6.000000 -0.863938 0.000000
vt -0.000000 -1.727876 0.000000
vt -6.000000 -1.727876 0.000000
vt -0.000000 -2.591814 0.000000
vt -6.000000 -2.591814 0.000000
vt -0.000000 -3.455752 0.000000
vt -6.000000 -3.455752 0.000000
vt -0.000000 -4.319690 0.000000
vt -6.000000 -4.319690 0.000000
vt 9.425249 6.000000 0.000000
vt -0.000000 6.000000 0.000000
vt 9.425249 0.000000 0.000000
vt -0.000000 0.000000 0.000000
vt -1.291424 -2.872185 0.000000
vt -1.291424 5.009103 0.000000
vt -2.759157 -2.872185 0.000000
vt -5.774892 -1.962624 0.000000
vt -5.707178 -2.823014 0.000000
vt -5.774892 7.462624 0.000000
vt 0.897823 5.009103 0.000000
vt 5.774892 7.462624 0.000000
vt 5.774892 -1.962624 0.000000
vt 2.372589 -2.872185 0.000000
vt 5.707178 -2.823014 0.000000
vt 5.505703 -3.662218 0.000000
vt 5.175428 -4.459572 0.000000
vt 4.724485 -5.195443 0.000000
vt 4.163979 -5.851712 0.000000
vt 3.507711 -6.412218 0.000000
vt 2.771840 -6.863160 0.000000
vt 1.974485 -7.193435 0.000000
vt -0.196801 -6.088255 0.000000
vt 1.135281 -7.394910 0.000000
vt 0.274892 -7.462624 0.000000
vt -0.274892 -7.462624 0.000000
vt -1.135281 -7.394910 0.000000
vt -1.974485 -7.193435 0.000000
vt -2.771840 -6.863160 0.000000
vt -3.507711 -6.412218 0.000000
vt -4.163979 -5.851712 0.000000
vt -4.724485 -5.195443 0.000000
vt -5.175428 -4.459572 0.000000
vt -5.505703 -3.662218 0.000000
vt 0.897823 -2.872185 0.000000
vt -0.000000 4.319690 0.000000
vt -6.000000 4.319690 0.000000
vt -0.000000 3.455752 0.000000
vt -6.000000 3.455752 0.000000
vt -0.000000 2.591814 0.000000
vt -6.000000 2.591814 0.000000
vt -0.000000 1.727876 0.000000
vt -6.000000 1.727876 0.000000
vt -0.000000 0.863938 0.000000
vt -6.000000 0.863938 0.000000
vt -0.000000 0.000000 0.000000
vt -6.000000 0.000000 0.000000
vt -0.000000 -0.863938 0.000000
vt -6.000000 -0.863938 0.000000
vt -0.000000 -1.727876 0.000000
vt -6.000000 -1.727876 0.000000
vt -0.000000 -2.591814 0.000000
vt -6.000000 -2.591814 0.000000
vt -0.000000 -3.455752 0.000000
vt -6.000000 -3.455752 0.000000
vt -0.000000 -4.319690 0.000000
vt -6.000000 -4.319690 0.000000
vt 5.500000 0.000000 0.000000
vt 14.925249 0.000000 0.000000
vt 5.500000 6.000000 0.000000
vt 14.925249 6.000000 0.000000
vt 5.500000 0.000000 0.000000
vt 6.049784 0.000000 0.000000
vt 5.500000 6.000000 0.000000
vt 6.049784 6.000000 0.000000
vt -0.000000 0.000000 0.000000
vt 11.549784 0.000000 0.000000
vt -0.000000 6.000000 0.000000
vt 11.549784 6.000000 0.000000
vt 7.462624 -0.274892 0.000000
vt 7.462624 0.274892 0.000000
vt 1.962624 5.774892 0.000000
vt 7.394910 1.135281 0.000000
vt 7.193435 1.974485 0.000000
vt 6.863160 2.771840 0.000000
vt 6.412218 3.507711 0.000000
vt 5.851712 4.163979 0.000000
vt 5.195443 4.724485 0.000000
vt 4.459572 5.175428 0.000000
vt 3.662218 5.505703 0.000000
vt 2.823014 5.707178 0.000000
vt -7.462624 5.774892 0.000000
vt -7.462624 -5.774892 0.000000
vt 1.962624 -5.774892 0.000000
vt 7.394910 -1.135281 0.000000
vt 7.193435 -1.974485 0.000000
vt 6.863160 -2.771840 0.000000
vt 6.412218 -3.507711 0.000000
vt 5.851712 -4.163979 0.000000
vt 5.195443 -4.724485 0.000000
vt 4.459572 -5.175428 0.000000
vt 3.662218 -5.505703 0.000000
vt 2.823014 -5.707178 0.000000
vn 0.100000 -0.000000 0.000000
vn 0.100000 -0.000000 0.000000
vn 0.100000 -0.000000 0.000000
vn 0.100000 -0.000000 0.000000
vn -0.062418 0.000000 0.078128
vn -0.062418 0.000000 0.078128
vn -0.062418 0.000000 0.078128
vn -0.062418 0.000000 0.078128
vn -0.062314 0.000000 -0.078211
vn -0.062314 0.000000 -0.078211
vn -0.062314 0.000000 -0.078211
vn -0.062314 0.000000 -0.078211
vn 0.100000 -0.000000 0.000000
vn 0.100000 -0.000000 0.000000
vn 0.100000 -0.000000 0.000000
vn 0.100000 -0.000000 0.000000
vn 0.000000 0.000000 -0.100000
vn 0.000000 0.000000 -0.100000
vn 0.000000 0.000000 -0.100000
vn 0.000000 0.000000 -0.100000
vn 0.100000 0.000000 0.000000
vn 0.100000 0.000000 0.000000
vn 0.100000 0.000000 0.000000
vn 0.100000 0.000000 0.000000
vn 0.000000 -0.000000 0.100000
vn 0.000000 -0.000000 0.100000
vn 0.000000 -0.000000 0.100000
vn 0.000000 -0.000000 0.100000
vn 0.000000 0.100000 0.000000
vn 0.000000 0.100000 0.000000
vn 0.000000 0.100000 0.000000
vn 0.000000 0.100000 0.000000
vn 0.000000 0.100000 0.000000
vn 0.000000 0.100000 0.000000
vn 0.000000 0.100000 0.000000
vn -0.100000 0.000000 0.000000
vn -0.100000 0.000000 0.000000
vn -0.098769 0.000000 -0.015643
vn -0.098769 0.000000 -0.015643
vn -0.095106 0.000000 -0.030902
vn -0.095106 0.000000 -0.030902
vn -0.089101 0.000000 -0.045399
vn -0.089101 0.000000 -0.045399
vn -0.080902 0.000000 -0.058779
vn -0.080902 0.000000 -0.058779
vn -0.070711 0.000000 -0.070711
vn -0.070711 0.000000 -0.070711
vn -0.058779 0.000000 -0.080902
vn -0.058779 0.000000 -0.080902
vn -0.045399 0.000000 -0.089101
vn -0.045399 0.000000 -0.089101
vn -0.030902 0.000000 -0.095106
vn -0.030902 0.000000 -0.095106
vn -0.015643 0.000000 -0.098769
vn -0.015643 0.000000 -0.098769
vn -0.000000 0.000000 -0.100000
vn -0.000000 0.000000 -0.100000
vn 0.000000 0.000000 -0.100000
vn 0.000000 0.000000 -0.100000
vn 0.000000 0.100000 0.000000
vn 0.000000 0.100000 0.000000
vn 0.000000 0.100000 0.000000
vn 0.000000 0.100000 0.000000
vn 0.000000 0.100000 0.000000
vn 0.000000 0.100000 0.000000
vn 0.000000 0.100000 0.000000
vn 0.000000 0.100000 0.000000
vn 0.000000 0.100000 0.000000
vn 0.000000 0.100000 0.000000
vn 0.000000 0.100000 0.000000
vn 0.000000 0.100000 0.000000
vn 0.000000 0.100000 0.000000
vn 0.000000 0.100000 0.000000
vn 0.000000 0.100000 0.000000
vn 0.000000 0.100000 0.000000
vn 0.000000 0.100000 0.000000
vn 0.000000 0.100000 0.000000
vn 0.000000 0.100000 0.000000
vn 0.000000 0.100000 0.000000
vn 0.000000 0.100000 0.000000
vn 0.000000 0.100000 0.000000
vn 0.000000 0.100000 0.000000
vn 0.000000 0.100000 0.000000
vn 0.000000 0.100000 0.000000
vn 0.000000 0.100000 0.000000
vn 0.000000 0.100000 0.000000
vn 0.000000 0.100000 0.000000
vn 0.000000 0.100000 0.000000
vn 0.000000 0.100000 0.000000
vn 0.000000 0.100000 0.000000
vn 0.000000 0.000000 0.100000
vn 0.000000 0.000000 0.100000
vn -0.015643 0.000000 0.098769
vn -0.015643 0.000000 0.098769
vn -0.030902 0.000000 0.095106
vn -0.030902 0.000000 0.095106
vn -0.045399 0.000000 0.089101
vn -0.045399 0.000000 0.089101
vn -0.058779 0.000000 0.080902
vn -0.058779 0.000000 0.080902
vn -0.070711 0.000000 0.070711
vn -0.070711 0.000000 0.070711
vn -0.080902 0.000000 0.058779
vn -0.080902 0.000000 0.058779
vn -0.089101 0.000000 0.045399
vn -0.089101 0.000000 0.045399
vn -0.095106 0.000000 0.030902
vn -0.095106 0.000000 0.030902
vn -0.098769 0.000000 0.015643
vn -0.098769 0.000000 0.015643
vn -0.100000 0.000000 0.000000
vn -0.100000 0.000000 0.000000
vn 0.000000 -0.000000 0.100000
vn 0.000000 -0.000000 0.100000
vn 0.100000 0.000000 0.000000
vn 0.100000 0.000000 0.000000
vn 0.100000 0.000000 0.000000
vn 0.100000 0.000000 0.000000
vn 0.000000 -0.100000 0.000000
vn 0.000000 -0.100000 0.000000
vn 0.000000 -0.100000 0.000000
vn 0.000000 -0.100000 0.000000
vn 0.000000 -0.100000 0.000000
vn 0.000000 -0.100000 0.000000
vn 0.000000 -0.100000 0.000000
vn 0.000000 -0.100000 0.000000
vn 0.000000 -0.100000 0.000000
vn 0.000000 -0.100000 0.000000
vn 0.000000 -0.100000 0.000000
vn 0.000000 -0.100000 0.000000
vn 0.000000 -0.100000 0.000000
vn 0.000000 -0.100000 0.000000
vn 0.000000 -0.100000 0.000000
vn 0.000000 -0.100000 0.000000
vn 0.000000 -0.100000 0.000000
vn 0.000000 -0.100000 0.000000
vn 0.000000 -0.100000 0.000000
vn 0.000000 -0.100000 0.000000
vn 0.000000 -0.100000 0.000000
vn 0.000000 -0.100000 0.000000
vn 0.000000 -0.100000 0.000000
vn 0.000000 -0.100000 0.000000
usemtl ABS_(White)
f 2/1/1 3/2/2 1/3/3
f 1/3/3 3/2/2 4/4/4
f 5/5/5 4/6/6 6/7/7
f 6/7/7 4/6/6 3/8/8
f 7/9/9 5/10/10 8/11/11
f 8/11/11 5/10/10 6/12/12
f 10/13/13 7/14/14 9/15/15
f 9/15/15 7/14/14 8/16/16
f 11/17/17 10/18/18 12/19/19
f 12/19/19 10/18/18 9/20/20
f 13/21/21 11/22/22 14/23/23
f 14/23/23 11/22/22 12/24/24
f 1/25/25 13/26/26 2/27/27
f 2/27/27 13/26/26 14/28/28
f 14/29/29 12/30/30 2/31/31
f 2/31/31 12/30/30 9/32/32
f 2/31/31 9/32/32 6/33/33
f 6/33/33 9/32/32 8/34/34
f 6/33/33 3/35/35 2/31/31
usemtl Steel_-_Satin
f 36/36/36 15/37/37 35/38/38
f 35/38/38 15/37/37 16/39/39
f 35/38/38 16/39/39 34/40/40
f 34/40/40 16/39/39 17/41/41
f 34/40/40 17/41/41 33/42/42
f 33/42/42 17/41/41 18/43/43
f 33/42/42 18/43/43 32/44/44
f 32/44/44 18/43/43 19/45/45
f 32/44/44 19/45/45 31/46/46
f 31/46/46 19/45/45 20/47/47
f 31/46/46 20/47/47 30/48/48
f 30/48/48 20/47/47 21/49/49
f 30/48/48 21/49/49 29/50/50
f 29/50/50 21/49/49 22/51/51
f 29/50/50 22/51/51 28/52/52
f 28/52/52 22/51/51 23/53/53
f 28/52/52 23/53/53 27/54/54
f 27/54/54 23/53/53 24/55/55
f 27/54/54 24/55/55 26/56/56
f 26/56/56 24/55/55 25/57/57
f 25/58/57 37/59/58 26/60/56
f 26/60/56 37/59/58 38/61/59
f 10/62/60 11/63/61 7/64/62
f 7/64/62 11/63/61 25/65/63
f 7/64/62 25/65/63 24/66/64
f 25/65/63 11/63/61 37/67/65
f 37/67/65 11/63/61 13/68/66
f 37/67/65 13/68/66 50/69/67
f 50/69/67 13/68/66 49/70/68
f 49/70/68 13/68/66 4/71/69
f 49/70/68 4/71/69 48/72/70
f 48/72/70 4/71/69 47/73/71
f 47/73/71 4/71/69 46/74/72
f 46/74/72 4/71/69 45/75/73
f 45/75/73 4/71/69 44/76/74
f 44/76/74 4/71/69 43/77/75
f 43/77/75 4/71/69 42/78/76
f 42/78/76 4/71/69 41/79/77
f 41/79/77 4/71/69 5/80/78
f 41/79/77 5/80/78 40/81/79
f 40/81/79 5/80/78 39/82/80
f 39/82/80 5/80/78 15/83/81
f 15/83/81 5/80/78 16/84/82
f 16/84/82 5/80/78 17/85/83
f 17/85/83 5/80/78 7/64/62
f 17/85/83 7/64/62 18/86/84
f 18/86/84 7/64/62 19/87/85
f 19/87/85 7/64/62 20/88/86
f 20/88/86 7/64/62 21/89/87
f 21/89/87 7/64/62 22/90/88
f 22/90/88 7/64/62 23/91/89
f 23/91/89 7/64/62 24/66/64
f 13/68/66 1/92/90 4/71/69
f 61/93/91 49/94/92 60/95/93
f 60/95/93 49/94/92 48/96/94
f 60/95/93 48/96/94 59/97/95
f 59/97/95 48/96/94 47/98/96
f 59/97/95 47/98/96 58/99/97
f 58/99/97 47/98/96 46/100/98
f 58/99/97 46/100/98 57/101/99
f 57/101/99 46/100/98 45/102/100
f 57/101/99 45/102/100 56/103/101
f 56/103/101 45/102/100 44/104/102
f 56/103/101 44/104/102 55/105/103
f 55/105/103 44/104/102 43/106/104
f 55/105/103 43/106/104 54/107/105
f 54/107/105 43/106/104 42/108/106
f 54/107/105 42/108/106 53/109/107
f 53/109/107 42/108/106 41/110/108
f 53/109/107 41/110/108 52/111/109
f 52/111/109 41/110/108 40/112/110
f 52/111/109 40/112/110 51/113/111
f 51/113/111 40/112/110 39/114/112
f 61/115/91 62/116/113 49/117/92
f 49/117/92 62/116/113 50/118/114
f 36/119/36 51/120/111 15/121/37
f 15/121/37 51/120/111 39/122/112
f 62/123/115 38/124/116 50/125/117
f 50/125/117 38/124/116 37/126/118
f 51/127/119 36/128/120 26/129/121
f 26/129/121 36/128/120 35/130/122
f 26/129/121 35/130/122 34/131/123
f 34/131/123 33/132/124 26/129/121
f 26/129/121 33/132/124 32/133/125
f 26/129/121 32/133/125 31/134/126
f 31/134/126 30/135/127 26/129/121
f 26/129/121 30/135/127 29/136/128
f 26/129/121 29/136/128 28/137/129
f 28/137/129 27/138/130 26/129/121
f 38/139/131 62/140/132 26/129/121
f 26/129/121 62/140/132 61/141/133
f 26/129/121 61/141/133 51/127/119
f 51/127/119 61/141/133 52/142/134
f 52/142/134 61/141/133 53/143/135
f 53/143/135 61/141/133 54/144/136
f 54/144/136 61/141/133 55/145/137
f 55/145/137 61/141/133 56/146/138
f 56/146/138 61/141/133 57/147/139
f 57/147/139 61/141/133 58/148/140
f 58/148/140 61/141/133 59/149/141
f 59/149/141 61/141/133 60/150/142
# 62 vertices
# 150 texture params
# 142 normals
# 120 facets

# 1 groups
